<?xml version="1.0" encoding="UTF-8"?>
<svg xmlns="http://www.w3.org/2000/svg" xmlns:xlink="http://www.w3.org/1999/xlink" width="96pt" height="96pt" viewBox="0 0 96 96" version="1.1">
<g id="surface8387896">
<path style=" stroke:none;fill-rule:nonzero;fill:rgb(100%,100%,100%);fill-opacity:1;" d="M 48 81.601562 C 29.441406 81.601562 14.398438 66.558594 14.398438 48 C 14.398438 29.441406 29.441406 14.398438 48 14.398438 C 66.558594 14.398438 81.601562 29.441406 81.601562 48 C 81.601562 66.558594 66.558594 81.601562 48 81.601562 Z M 48 81.601562 "/>
<path style=" stroke:none;fill-rule:nonzero;fill:rgb(48.235294%,25.882354%,56.862748%);fill-opacity:1;" d="M 46.683594 23.144531 C 47.5 22.6875 48.5 22.6875 49.316406 23.144531 C 53.339844 25.402344 65.457031 32.203125 69.484375 34.464844 C 70.296875 34.917969 70.800781 35.765625 70.800781 36.679688 C 70.800781 41.199219 70.800781 54.800781 70.800781 59.320312 C 70.800781 60.234375 70.296875 61.078125 69.484375 61.535156 C 65.457031 63.796875 53.34375 70.597656 49.316406 72.855469 C 48.5 73.3125 47.496094 73.3125 46.683594 72.855469 C 42.65625 70.597656 30.542969 63.796875 26.515625 61.535156 C 25.703125 61.078125 25.199219 60.234375 25.199219 59.320312 C 25.199219 54.800781 25.199219 41.199219 25.199219 36.679688 C 25.199219 35.765625 25.703125 34.921875 26.515625 34.464844 C 30.542969 32.203125 42.660156 25.402344 46.683594 23.144531 Z M 46.683594 23.144531 "/>
<path style=" stroke:none;fill-rule:nonzero;fill:rgb(60.784316%,34.901962%,71.372551%);fill-opacity:1;" d="M 25.566406 60.484375 C 25.246094 60.058594 25.199219 59.652344 25.199219 59.105469 C 25.199219 54.613281 25.199219 41.089844 25.199219 36.59375 C 25.199219 35.683594 25.699219 34.84375 26.511719 34.390625 C 30.523438 32.144531 42.597656 25.382812 46.609375 23.136719 C 47.421875 22.679688 48.523438 22.691406 49.335938 23.144531 C 53.347656 25.390625 65.378906 32.097656 69.390625 34.34375 C 69.714844 34.523438 69.964844 34.746094 70.183594 35.035156 Z M 25.566406 60.484375 "/>
<path style=" stroke:none;fill-rule:nonzero;fill:rgb(100%,100%,100%);fill-opacity:1;" d="M 48 31.199219 C 38.722656 31.199219 31.199219 38.722656 31.199219 48 C 31.199219 57.277344 38.722656 64.800781 48 64.800781 C 57.277344 64.800781 64.800781 57.277344 64.800781 48 C 64.800781 38.722656 57.277344 31.199219 48 31.199219 Z M 48 56.398438 C 43.367188 56.398438 39.601562 52.632812 39.601562 48 C 39.601562 43.367188 43.367188 39.601562 48 39.601562 C 52.632812 39.601562 56.398438 43.367188 56.398438 48 C 56.398438 52.632812 52.632812 56.398438 48 56.398438 Z M 48 56.398438 "/>
<path style=" stroke:none;fill-rule:nonzero;fill:rgb(60.784316%,29.803923%,73.725492%);fill-opacity:1;" d="M 70.183594 35.046875 C 70.800781 35.625 70.789062 36.5 70.789062 37.1875 C 70.789062 41.742188 70.75 54.695312 70.800781 59.246094 C 70.804688 59.722656 70.648438 60.222656 70.414062 60.601562 L 47.511719 48 Z M 70.183594 35.046875 "/>
<path style=" stroke:none;fill-rule:nonzero;fill:rgb(100%,100%,100%);fill-opacity:1;" d="M 60 43.199219 L 61.199219 43.199219 L 61.199219 52.800781 L 60 52.800781 Z M 63.601562 43.199219 L 64.800781 43.199219 L 64.800781 52.800781 L 63.601562 52.800781 Z M 63.601562 43.199219 "/>
<path style=" stroke:none;fill-rule:nonzero;fill:rgb(100%,100%,100%);fill-opacity:1;" d="M 57.601562 49.199219 L 67.199219 49.199219 L 67.199219 50.398438 L 57.601562 50.398438 Z M 57.601562 45.601562 L 67.199219 45.601562 L 67.199219 46.800781 L 57.601562 46.800781 Z M 57.601562 45.601562 "/>
</g>
</svg>
