<?xml version="1.0" encoding="UTF-8"?>
<svg xmlns="http://www.w3.org/2000/svg" xmlns:xlink="http://www.w3.org/1999/xlink" width="96pt" height="96pt" viewBox="0 0 96 96" version="1.1">
<g id="surface8581664">
<path style=" stroke:none;fill-rule:nonzero;fill:rgb(100%,100%,100%);fill-opacity:1;" d="M 48 81.601562 C 29.441406 81.601562 14.398438 66.558594 14.398438 48 C 14.398438 29.441406 29.441406 14.398438 48 14.398438 C 66.558594 14.398438 81.601562 29.441406 81.601562 48 C 81.601562 66.558594 66.558594 81.601562 48 81.601562 Z M 48 81.601562 "/>
<path style=" stroke:none;fill-rule:nonzero;fill:rgb(0.784314%,46.666667%,74.117649%);fill-opacity:1;" d="M 68.398438 25.199219 L 27.601562 25.199219 L 31.199219 66 L 48 70.800781 L 64.800781 66 Z M 68.398438 25.199219 "/>
<path style=" stroke:none;fill-rule:nonzero;fill:rgb(1.176471%,60.784316%,89.803922%);fill-opacity:1;" d="M 48 28.800781 L 48 67.078125 L 61.441406 63.238281 L 64.441406 28.800781 Z M 48 28.800781 "/>
<path style=" stroke:none;fill-rule:nonzero;fill:rgb(100%,100%,100%);fill-opacity:1;" d="M 58.921875 34.800781 L 48 34.800781 L 48 39.601562 L 53.878906 39.601562 L 53.519531 44.398438 L 48 44.398438 L 48 49.199219 L 53.28125 49.199219 L 52.921875 54.601562 L 48 56.28125 L 48 61.320312 L 57.480469 58.199219 L 58.320312 44.398438 Z M 58.921875 34.800781 "/>
<path style=" stroke:none;fill-rule:nonzero;fill:rgb(93.333334%,93.333334%,93.333334%);fill-opacity:1;" d="M 48 34.800781 L 48 39.601562 L 37.320312 39.601562 L 36.960938 34.800781 Z M 42.480469 44.398438 L 42.71875 49.199219 L 48 49.199219 L 48 44.398438 Z M 42.960938 51.601562 L 38.160156 51.601562 L 38.519531 58.199219 L 48 61.320312 L 48 56.28125 L 43.078125 54.601562 Z M 42.960938 51.601562 "/>
</g>
</svg>
