<?xml version="1.0" encoding="UTF-8"?>
<svg xmlns="http://www.w3.org/2000/svg" xmlns:xlink="http://www.w3.org/1999/xlink" width="96pt" height="96pt" viewBox="0 0 96 96" version="1.1">
<g id="surface8380117">
<path style=" stroke:none;fill-rule:nonzero;fill:rgb(100%,100%,100%);fill-opacity:1;" d="M 48 81.601562 C 29.441406 81.601562 14.398438 66.558594 14.398438 48 C 14.398438 29.441406 29.441406 14.398438 48 14.398438 C 66.558594 14.398438 81.601562 29.441406 81.601562 48 C 81.601562 66.558594 66.558594 81.601562 48 81.601562 Z M 48 81.601562 "/>
<path style=" stroke:none;fill-rule:nonzero;fill:rgb(95.686275%,26.274511%,21.176471%);fill-opacity:1;" d="M 47.578125 49.078125 C 46.382812 47.144531 45.511719 45.546875 44.308594 42.53125 C 42.273438 37.441406 56.6875 32.839844 50.84375 24 C 53.378906 30.105469 41.75 33.878906 40.671875 38.964844 C 39.683594 43.644531 47.574219 49.078125 47.578125 49.078125 Z M 47.578125 49.078125 "/>
<path style=" stroke:none;fill-rule:nonzero;fill:rgb(95.686275%,26.274511%,21.176471%);fill-opacity:1;" d="M 47.855469 39.921875 C 47.625 42.941406 50.527344 44.550781 50.613281 46.757812 C 50.679688 48.554688 48.875 50.050781 48.875 50.050781 C 48.875 50.050781 52.148438 49.40625 53.171875 46.667969 C 54.304688 43.625 50.96875 41.542969 51.3125 39.109375 C 51.632812 36.785156 58.550781 32.457031 58.550781 32.457031 C 58.550781 32.457031 48.375 33.132812 47.855469 39.921875 Z M 47.855469 39.921875 "/>
<path style=" stroke:none;fill-rule:nonzero;fill:rgb(8.235294%,39.607844%,75.294119%);fill-opacity:1;" d="M 57.699219 49.265625 C 59.804688 48.792969 61.582031 50.132812 61.582031 51.675781 C 61.582031 55.160156 56.753906 58.449219 56.753906 58.449219 C 56.753906 58.449219 64.226562 57.558594 64.226562 51.84375 C 64.226562 48.0625 60.558594 47.117188 57.699219 49.265625 Z M 54.15625 52.074219 C 54.15625 52.074219 56.484375 50.414062 57.105469 49.792969 C 51.390625 51.003906 38.339844 51.167969 38.339844 50.113281 C 38.339844 49.144531 42.546875 48.148438 42.546875 48.148438 C 42.546875 48.148438 33.21875 48.015625 33.21875 50.765625 C 33.21875 53.632812 45.429688 53.839844 54.15625 52.074219 Z M 54.15625 52.074219 "/>
<path style=" stroke:none;fill-rule:nonzero;fill:rgb(8.235294%,39.607844%,75.294119%);fill-opacity:1;" d="M 52.722656 54.683594 C 47.3125 56.484375 37.34375 55.910156 40.296875 53.492188 C 38.859375 53.492188 36.726562 54.648438 36.726562 55.761719 C 36.726562 57.988281 47.507812 59.710938 55.484375 56.445312 Z M 52.722656 54.683594 "/>
<path style=" stroke:none;fill-rule:nonzero;fill:rgb(8.235294%,39.607844%,75.294119%);fill-opacity:1;" d="M 41.625 58.488281 C 39.660156 58.488281 38.390625 59.75 38.390625 60.671875 C 38.390625 63.542969 50.101562 63.832031 54.742188 60.917969 L 51.792969 58.960938 C 48.324219 60.484375 39.617188 60.695312 41.625 58.488281 Z M 41.625 58.488281 "/>
<path style=" stroke:none;fill-rule:nonzero;fill:rgb(8.235294%,39.607844%,75.294119%);fill-opacity:1;" d="M 62.738281 63.15625 C 62.738281 62.035156 61.472656 61.503906 61.019531 61.253906 C 63.691406 67.699219 34.238281 67.199219 34.238281 63.394531 C 34.238281 62.527344 36.40625 61.679688 38.410156 62.082031 L 36.707031 61.074219 C 32.710938 60.449219 30 62.203125 30 63.621094 C 30 70.222656 62.738281 69.90625 62.738281 63.15625 Z M 62.738281 63.15625 "/>
<path style=" stroke:none;fill-rule:nonzero;fill:rgb(8.235294%,39.607844%,75.294119%);fill-opacity:1;" d="M 66 65.523438 C 61.023438 70.4375 48.410156 72.230469 35.722656 69.191406 C 48.410156 74.597656 65.941406 71.554688 66 65.523438 Z M 66 65.523438 "/>
</g>
</svg>
