<?xml version="1.0" encoding="UTF-8"?>
<svg xmlns="http://www.w3.org/2000/svg" xmlns:xlink="http://www.w3.org/1999/xlink" width="96pt" height="96pt" viewBox="0 0 96 96" version="1.1">
<g id="surface8170928">
<path style=" stroke:none;fill-rule:nonzero;fill:rgb(100%,100%,100%);fill-opacity:1;" d="M 48 81.601562 C 29.441406 81.601562 14.398438 66.558594 14.398438 48 C 14.398438 29.441406 29.441406 14.398438 48 14.398438 C 66.558594 14.398438 81.601562 29.441406 81.601562 48 C 81.601562 66.558594 66.558594 81.601562 48 81.601562 Z M 48 81.601562 "/>
<path style=" stroke:none;fill-rule:nonzero;fill:rgb(0.784314%,46.666667%,74.117649%);fill-opacity:1;" d="M 47.707031 25.199219 C 45.839844 25.207031 44.546875 25.371094 42.984375 25.640625 C 38.367188 26.445312 37.523438 28.132812 37.523438 31.246094 L 37.523438 36 L 48.324219 36 L 48.324219 38.398438 L 31.894531 38.398438 C 28.730469 38.398438 25.964844 39.890625 25.085938 43.460938 C 24.09375 47.5625 24.050781 50.132812 25.085938 54.414062 C 25.871094 57.605469 27.601562 60 30.769531 60 L 35.125 60 L 35.125 53.875 C 35.125 50.316406 38.347656 46.800781 42.042969 46.800781 L 50.726562 46.800781 C 53.753906 46.800781 56.726562 44.566406 56.726562 41.546875 L 56.726562 31.246094 C 56.726562 28.316406 54.613281 26.128906 51.664062 25.636719 C 51.738281 25.632812 49.558594 25.191406 47.707031 25.199219 Z M 41.726562 30 C 42.710938 30 43.527344 30.8125 43.527344 31.800781 C 43.527344 32.800781 42.710938 33.601562 41.726562 33.601562 C 40.722656 33.601562 39.925781 32.804688 39.925781 31.800781 C 39.925781 30.816406 40.722656 30 41.726562 30 Z M 41.726562 30 "/>
<path style=" stroke:none;fill-rule:nonzero;fill:rgb(100%,75.686276%,2.745098%);fill-opacity:1;" d="M 46.542969 70.800781 C 48.410156 70.792969 49.703125 70.628906 51.265625 70.359375 C 55.882812 69.554688 56.726562 67.867188 56.726562 64.753906 L 56.726562 60 L 45.925781 60 L 45.925781 57.601562 L 62.355469 57.601562 C 65.519531 57.601562 68.289062 56.109375 69.167969 52.539062 C 70.15625 48.4375 70.203125 45.867188 69.167969 41.585938 C 68.378906 38.394531 66.648438 36 63.484375 36 L 59.125 36 L 59.125 42.125 C 59.125 45.683594 55.902344 49.199219 52.207031 49.199219 L 43.523438 49.199219 C 40.496094 49.199219 37.523438 51.433594 37.523438 54.453125 L 37.523438 64.753906 C 37.523438 67.683594 39.636719 69.871094 42.585938 70.363281 C 42.511719 70.367188 44.695312 70.808594 46.542969 70.800781 Z M 52.527344 66 C 51.539062 66 50.726562 65.1875 50.726562 64.199219 C 50.726562 63.199219 51.539062 62.398438 52.527344 62.398438 C 53.53125 62.398438 54.324219 63.195312 54.324219 64.199219 C 54.324219 65.183594 53.527344 66 52.527344 66 Z M 52.527344 66 "/>
</g>
</svg>
